<svg xmlns="http://www.w3.org/2000/svg" width="231.894" height="502.129" viewBox="0 0 231.894 502.129">
  <g id="iPhone_X_-_Light" data-name="iPhone X - Light" transform="translate(0 0)" opacity="0.71">
    <path id="Screen" d="M208.4,502.129H23.5A23.525,23.525,0,0,1,0,478.63V23.5A23.525,23.525,0,0,1,23.5,0H48.4a4.212,4.212,0,0,1,3.234,3.2c.1.447.208,1.033.331,1.711.237,1.3.531,2.922.969,4.556.566,2.115,3.064,9.021,11.458,9.107,3.166.033,22.907.04,38.91.04,29.439,0,63.218-.023,64.8-.04,8.394-.087,10.892-6.993,11.458-9.107.438-1.638.733-3.258.969-4.559.124-.681.229-1.262.33-1.707A4.077,4.077,0,0,1,184.061,0H208.4a23.525,23.525,0,0,1,23.5,23.5V478.63A23.525,23.525,0,0,1,208.4,502.129Z" transform="translate(0 0)" fill="#e3e3e3"/>
    <path id="Image_Place_here" data-name="Image Place here" d="M208.4,502.129H23.5A23.525,23.525,0,0,1,0,478.63V23.5A23.525,23.525,0,0,1,23.5,0H48.4a4.212,4.212,0,0,1,3.234,3.2c.1.447.208,1.033.331,1.711.237,1.3.531,2.922.969,4.556.566,2.115,3.064,9.021,11.458,9.107,3.166.033,22.907.04,38.91.04,29.439,0,63.218-.023,64.8-.04,8.394-.087,10.892-6.993,11.458-9.107.438-1.638.733-3.258.969-4.559.124-.681.229-1.262.33-1.707A4.077,4.077,0,0,1,184.061,0H208.4a23.525,23.525,0,0,1,23.5,23.5V478.63A23.525,23.525,0,0,1,208.4,502.129Z" transform="translate(0 0)" fill="#e3e3e3"/>
    <path id="Home" d="M1.546,0h77.3a1.546,1.546,0,1,1,0,3.092H1.546A1.546,1.546,0,1,1,1.546,0Z" transform="translate(76.061 491.617)" fill="#e2e2e2"/>
  </g>
</svg>
